<svg width="45" height="45" viewBox="0 0 45 45" fill="none" xmlns="http://www.w3.org/2000/svg">
<path d="M37.9687 4.21875V40.7812C37.9687 41.1542 37.8206 41.5119 37.5568 41.7756C37.2931 42.0393 36.9354 42.1875 36.5625 42.1875H8.43748C8.06451 42.1875 7.70683 42.0393 7.44311 41.7756C7.17938 41.5119 7.03123 41.1542 7.03123 40.7812V37.9688H9.84373V39.375H35.1562V5.625H9.84373V9.84375H7.03123V4.21875C7.03123 3.84579 7.17938 3.4881 7.44311 3.22438C7.70683 2.96066 8.06451 2.8125 8.43748 2.8125H36.5625C36.9354 2.8125 37.2931 2.96066 37.5568 3.22438C37.8206 3.4881 37.9687 3.84579 37.9687 4.21875ZM15.0609 28.5328L10.4203 23.9062H25.3125V21.0938H10.4203L15.0609 16.4672L13.064 14.4703L6.03279 21.5016C5.90098 21.6323 5.79637 21.7878 5.72497 21.9592C5.65358 22.1306 5.61682 22.3144 5.61682 22.5C5.61682 22.6856 5.65358 22.8694 5.72497 23.0408C5.79637 23.2122 5.90098 23.3677 6.03279 23.4984L13.064 30.5297L15.0609 28.5328Z" fill="black"/>
</svg>
